<svg width="55" height="55" viewBox="0 0 55 55" fill="none" xmlns="http://www.w3.org/2000/svg">
<path d="M26.6926 0.342888L26.268 0.669522V5.73236V10.7952L26.6763 11.1872C26.8886 11.4158 27.2316 11.5955 27.4112 11.5955C27.6072 11.5955 27.9339 11.4158 28.1462 11.1872L28.5545 10.7952V5.73236V0.669522L28.1298 0.342888C27.8849 0.146907 27.5746 -7.9155e-05 27.4112 -7.9155e-05C27.2479 -7.9155e-05 26.9376 0.146907 26.6926 0.342888Z" fill="#0055B8"/>
<path d="M23.2467 5.01381C14.3459 6.61432 6.83328 13.9473 5.13478 22.7011C4.9878 23.4687 4.82448 24.2526 4.77548 24.4486C4.71016 24.8079 4.74282 24.8242 5.93504 24.8242H7.15992V24.3506C7.15992 23.6483 7.89485 20.9863 8.46646 19.5981C11.0469 13.3267 17.2039 8.32916 23.6223 7.30026L24.7982 7.10428V5.92839C24.7982 5.27512 24.7492 4.73617 24.6839 4.75251C24.6022 4.76884 23.9653 4.88316 23.2467 5.01381Z" fill="#0055B8"/>
<path d="M30.0243 5.92839V7.10428L31.2165 7.30026C37.6185 8.32916 43.7756 13.3267 46.356 19.5981C46.9276 20.9863 47.6625 23.6483 47.6625 24.3506V24.8242H48.8874C50.0796 24.8242 50.1123 24.8079 50.047 24.4486C49.998 24.2526 49.8347 23.4687 49.6877 22.7011C48.0218 14.1269 40.6562 6.77765 32.1147 5.14447C31.3635 4.99748 30.5959 4.8505 30.3999 4.8015C30.0406 4.73618 30.0243 4.76884 30.0243 5.92839Z" fill="#0055B8"/>
<path d="M25.9904 15.4169C21.7932 16.7888 21.1236 22.2436 24.8636 24.4811C25.6312 24.9383 26.0068 25.0527 26.9867 25.118C29.2405 25.265 30.9063 24.3341 31.8535 22.4233C32.8008 20.4798 32.5231 18.4383 31.086 16.8541C29.8937 15.5149 27.6236 14.878 25.9904 15.4169Z" fill="#0055B8"/>
<path d="M17.1224 19.4349C15.9792 19.6472 14.7216 20.6434 14.3133 21.705C14.0194 22.4726 14.0847 23.8608 14.4603 24.5794C15.1789 25.9512 16.2895 26.6208 17.8247 26.6208C18.6739 26.6208 18.9842 26.5392 19.6048 26.1472C20.7807 25.4123 21.3686 24.3507 21.3686 23.0115C21.3686 20.7251 19.3762 19.0429 17.1224 19.4349Z" fill="#0055B8"/>
<path d="M36.4753 19.4348C33.6499 19.8595 32.474 23.2238 34.3848 25.4776C35.1851 26.4412 36.6223 26.8331 38.2064 26.5065C39.0884 26.3432 40.3786 24.9386 40.6235 23.8771C41.2442 21.362 39.072 19.0592 36.4753 19.4348Z" fill="#0055B8"/>
<path d="M23.6224 25.3305C22.6425 25.8368 21.1563 27.4047 20.5847 28.5479C19.8171 30.0994 19.7191 30.9323 19.7681 34.7703C19.8497 39.9638 19.4088 39.6861 27.4113 39.6861C33.8787 39.6861 33.9767 39.6698 34.7116 38.5592C35.0709 38.0203 35.0873 37.8733 35.0873 34.3783C35.0873 30.4587 34.9729 29.7074 34.14 28.2539C33.6011 27.3067 32.4415 26.0818 31.4453 25.4448L30.6614 24.9386L29.7468 25.4122C28.9302 25.8205 28.6526 25.8695 27.4277 25.8695C26.1375 25.8531 25.3372 25.6408 24.3083 25.0692C24.2593 25.0366 23.949 25.1672 23.6224 25.3305Z" fill="#0055B8"/>
<path d="M0.382228 26.7024C-0.107724 27.1924 -0.124056 27.5843 0.316901 28.1559L0.643536 28.5806H5.70638H10.7692L11.1612 28.1723C11.6838 27.666 11.6838 27.2087 11.1612 26.7024L10.7692 26.2941H5.7717H0.77419L0.382228 26.7024Z" fill="#0055B8"/>
<path d="M43.6613 26.7024C43.4327 26.9147 43.253 27.2414 43.253 27.4373C43.253 27.617 43.4327 27.96 43.6613 28.1723L44.0533 28.5806H49.1161H54.179L54.5056 28.1559C54.7016 27.911 54.8486 27.6007 54.8486 27.4373C54.8486 27.274 54.7016 26.9637 54.5056 26.7187L54.179 26.2941H49.1161H44.0533L43.6613 26.7024Z" fill="#0055B8"/>
<path d="M34.3849 26.8002C34.1236 26.9472 34.14 27.0126 34.4993 27.4862C34.7279 27.7801 35.1035 28.5967 35.3485 29.3153C35.7731 30.5729 35.7895 30.7525 35.8058 34.0515L35.8221 37.4812H38.7945H41.7832L42.2242 37.0239C42.6815 36.583 42.6815 36.5666 42.7305 34.0515C42.7958 31.0955 42.5671 29.9359 41.7016 28.6457C41.032 27.6822 39.7744 26.7023 39.3661 26.8329C39.2191 26.8819 38.7618 27.0452 38.3536 27.1922C37.4553 27.5352 36.2141 27.4372 35.2995 26.9799C34.8422 26.7349 34.5809 26.7023 34.3849 26.8002Z" fill="#0055B8"/>
<path d="M14.5092 27.2411C14.1009 27.5024 13.4967 28.1067 13.17 28.5966C12.2555 29.9358 12.0268 31.0627 12.0921 34.0514C12.1411 36.5665 12.1411 36.5829 12.5984 37.0238L13.0394 37.4811L16.0444 37.5301L19.0495 37.5791L19.1148 33.8555C19.1801 30.4095 19.2128 30.0665 19.5558 29.1519C19.7681 28.613 20.1274 27.8944 20.3233 27.5677C20.6826 27.0125 20.6826 26.9635 20.405 26.8655C20.2417 26.8165 19.8661 26.8818 19.5558 27.0125C18.3309 27.5187 17.5306 27.5024 15.5708 26.8655C15.3585 26.8002 14.9829 26.9308 14.5092 27.2411Z" fill="#0055B8"/>
<path d="M4.77548 30.4096C4.82448 30.6219 4.9878 31.4058 5.13478 32.1734C6.80062 40.7476 14.1662 48.0969 22.7077 49.73C23.459 49.877 24.2266 50.024 24.4389 50.073C24.7819 50.1383 24.7982 50.1057 24.7982 48.9461V47.7702L23.6223 47.5742C17.2039 46.5453 11.0469 41.5478 8.46646 35.2764C7.89485 33.8882 7.15992 31.2262 7.15992 30.5239V30.0503H5.93504C4.74282 30.0503 4.71016 30.0666 4.77548 30.4096Z" fill="#0055B8"/>
<path d="M47.6625 30.5239C47.6625 31.2262 46.9276 33.8882 46.356 35.2764C43.7756 41.5478 37.6185 46.5453 31.2165 47.5742L30.0243 47.7702V48.9461C30.0243 50.1057 30.0406 50.1383 30.3999 50.073C30.5959 50.024 31.3635 49.877 32.1147 49.73C40.6562 48.0969 48.0218 40.7476 49.6877 32.1734C49.8347 31.4058 49.998 30.6219 50.047 30.4096C50.1123 30.0666 50.0796 30.0503 48.8874 30.0503H47.6625V30.5239Z" fill="#0055B8"/>
<path d="M26.6763 43.6874L26.268 44.0793V49.1422V54.205L26.6926 54.5316C27.2479 54.9563 27.5746 54.9563 28.1298 54.5316L28.5545 54.205V49.1422V44.0793L28.1462 43.6874C27.9339 43.4587 27.6072 43.2791 27.4112 43.2791C27.2316 43.2791 26.8886 43.4587 26.6763 43.6874Z" fill="#0055B8"/>
</svg>
