<svg width="46" height="47" viewBox="0 0 46 47" fill="none" xmlns="http://www.w3.org/2000/svg">
<path d="M5.75 13.8333C5.75 11.0048 5.75 9.59061 6.62868 8.71193C7.50736 7.83325 8.92157 7.83325 11.75 7.83325H34.25C37.0784 7.83325 38.4926 7.83325 39.3713 8.71193C40.25 9.59061 40.25 11.0048 40.25 13.8333V23.1999C40.25 23.3413 40.25 23.4121 40.2061 23.456C40.1621 23.4999 40.0914 23.4999 39.95 23.4999H30.8333C28.9477 23.4999 28.0049 23.4999 27.4191 24.0857C26.8333 24.6715 26.8333 25.6143 26.8333 27.4999V29.2916C26.8333 31.1772 26.8333 32.12 27.4191 32.7058C28.0049 33.2916 28.9477 33.2916 30.8333 33.2916H39.9702C40.0921 33.2916 40.153 33.2916 40.1943 33.3249C40.2025 33.3316 40.21 33.3391 40.2167 33.3473C40.25 33.3886 40.25 33.4495 40.25 33.5713V33.5713C40.25 36.0083 40.25 37.2268 39.5838 38.0516C39.4505 38.2167 39.3001 38.3671 39.1351 38.5004C38.3103 39.1666 37.0918 39.1666 34.6548 39.1666H11.75C8.92157 39.1666 7.50736 39.1666 6.62868 38.2879C5.75 37.4092 5.75 35.995 5.75 33.1666V13.8333Z" fill="#0055B8"/>
<path d="M26.8333 25.5C26.8333 24.3954 27.7287 23.5 28.8333 23.5H40.1C40.1828 23.5 40.25 23.5672 40.25 23.65V33.1417C40.25 33.2245 40.1828 33.2917 40.1 33.2917H28.8333C27.7287 33.2917 26.8333 32.3962 26.8333 31.2917V25.5Z" fill="#B0CAE9"/>
<rect x="11.5" y="13.7083" width="11.5" height="1.95833" rx="0.979167" fill="#B0CAE9"/>
</svg>
