<svg width="51" height="42" viewBox="0 0 51 42" fill="none" xmlns="http://www.w3.org/2000/svg">
<path d="M9.48446 0.157102C7.47079 0.97806 6.41748 2.46508 6.41748 4.47875C6.41748 7.5767 9.32956 9.76076 12.2571 8.87785C15.479 7.90199 16.5788 3.90563 14.3173 1.39628C13.4808 0.482386 12.4895 0.0486727 11.1109 0.00220299C10.4603 -0.0132866 9.74778 0.0486727 9.48446 0.157102Z" fill="#FED118"/>
<path d="M0.918636 6.39948C0.6708 6.56987 0.577861 6.78672 0.577861 7.20495C0.577861 7.82454 0.237086 7.11201 12.0248 29.9594L17.9729 41.4683L25.9346 41.4993C30.3182 41.5303 33.9428 41.4993 33.9738 41.4374C34.0513 41.3289 39.8444 26.753 40.3246 25.5139C40.6034 24.7549 40.6034 23.3453 40.2937 22.9116C39.9219 22.3849 39.2403 22.1061 38.311 22.1061C37.8153 22.1061 33.5091 22.9271 28.1187 24.0423C18.2207 26.1025 17.3843 26.2729 16.9815 26.3813C16.7802 26.4433 16.1606 25.6688 14.6581 23.5467C2.14233 5.9038 2.35919 6.18262 1.50725 6.15164C1.36784 6.15164 1.10451 6.26007 0.918636 6.39948Z" fill="#FED118"/>
<path d="M16.9196 9.69889C14.7045 10.272 13.233 12.1618 13.2175 14.4233C13.2175 15.2752 13.295 15.6934 13.5893 16.3285C14.1624 17.5057 18.1278 23.175 18.3911 23.175C18.6544 23.1905 35.2595 19.3955 35.3524 19.3026C35.3989 19.2406 34.8258 16.375 34.423 14.7331C34.3611 14.4233 34.2526 14.4388 30.1324 15.3991C27.8089 15.9258 25.8262 16.375 25.7178 16.375C25.6248 16.375 24.7884 15.3527 23.8745 14.0825C21.7679 11.2324 21.1483 10.5663 20.2034 10.0706C19.3825 9.66791 17.756 9.46655 16.9196 9.69889Z" fill="#FED118"/>
<path d="M41.4089 30.8734C40.526 33.0574 40.2317 33.9713 40.3246 34.1727C40.4021 34.3276 41.6103 36.0934 43.0044 38.1226C44.9406 40.9108 45.6066 41.7627 45.7925 41.7007C46.1798 41.5613 50.3 38.9745 50.3 38.8816C50.3 38.8042 42.9424 28.1937 42.7255 27.9458C42.6636 27.8839 42.075 29.2005 41.4089 30.8734Z" fill="#FED118"/>
</svg>
