<svg width="48" height="48" viewBox="0 0 48 48" fill="none" xmlns="http://www.w3.org/2000/svg">
<path d="M14.35 4.07159C11.4167 4.46883 7.96666 5.82607 6.69999 7.10056C6.38333 7.41504 5.98333 7.99435 5.79999 8.39159C5.61666 8.80538 5.04999 11.4868 4.53333 14.3668L3.58333 19.6137V26.2344C3.58333 33.7985 3.59999 33.8647 4.93333 35.073L5.66666 35.7516V37.7212C5.66666 39.2937 5.71666 39.7571 5.93333 39.9557C6.31666 40.353 13.0167 40.353 13.4 39.9557C13.6167 39.7571 13.6667 39.3268 13.6667 37.9695V36.2481H14.7333H15.8167L15.8667 32.8054L15.9167 29.3792L17.6333 25.0757C18.5833 22.7088 19.4667 20.6068 19.6 20.3916L19.8333 20.0275H13.75C10.4 20.0275 7.66666 20.0109 7.66666 19.9778C7.66666 19.7461 8.84999 11.255 8.93333 10.924C9.21666 9.73228 11.3333 8.37504 13.8333 7.82883C15.7 7.39849 24.1667 7.41504 26.0833 7.82883C28.6333 8.37504 30.7 9.63297 31.0667 10.8412C31.1333 11.1061 32 17.4454 32 17.7764C32 17.8261 32.8667 17.8757 33.9333 17.8757H35.8667L35.7667 17.4123C35.7167 17.164 35.3667 15.1943 35 13.0095C34.2833 8.83849 34 7.94469 33.0833 7.0509C31.8167 5.77642 28.3667 4.46883 25.2833 4.05504C22.8 3.74055 16.7833 3.74055 14.35 4.07159ZM11.9167 24.3144C14.2833 25.3737 14.4 28.684 12.1167 29.7764C10.45 30.5709 8.44999 29.8592 7.84999 28.2537C6.86666 25.6881 9.44999 23.1888 11.9167 24.3144Z" fill="#FED118"/>
<path d="M22.5667 20.3584C21.7 20.7887 21.5667 21.0535 19.5667 25.9032L17.9167 29.8756L17.8667 36.6618C17.8167 43.3984 17.8167 43.4646 18.1667 43.9115L18.5167 44.3584H20.9167C24.0167 44.3584 24 44.3749 24 41.9253V40.2204H31.1667H38.3333V41.9584C38.3333 44.3915 38.2833 44.3584 41.3833 44.3584C43.6167 44.3584 43.8 44.3253 44.1 44.0108C44.4 43.6798 44.4167 43.3156 44.4167 36.8439V30.0411L42.6833 25.7542C41.7167 23.4039 40.7667 21.2522 40.5333 20.9873C39.7 20.0108 39.9167 20.0273 31.2167 20.0273C23.5667 20.0273 23.2167 20.0439 22.5667 20.3584ZM37.7333 23.3542C38.05 23.5032 38.4333 24.2315 39.5667 26.797L40.9833 30.0411L31.2167 30.0908C25.85 30.1073 21.4167 30.1073 21.4 30.0742C21.2833 29.9584 24.1833 23.5694 24.45 23.3708C24.8333 23.106 37.1167 23.0729 37.7333 23.3542ZM23.85 32.3087C25.2 32.7556 26 33.8149 26 35.1556C26 36.0825 25.7667 36.6949 25.2 37.2908C24.5333 37.986 23.95 38.2342 22.9667 38.2342C21.4333 38.2342 20.2 37.1915 19.9 35.6522C19.6667 34.3942 20.6333 32.8053 21.9167 32.3584C22.75 32.077 23.1333 32.0604 23.85 32.3087ZM41.0667 32.7391C43.5167 34.4439 42.3333 38.2342 39.35 38.2342C38.3667 38.2342 37.7833 37.986 37.15 37.2908C36.5 36.5956 36.3333 36.1984 36.3333 35.2549C36.3333 33.8315 37.15 32.6894 38.45 32.2756C39.2 32.0273 40.35 32.226 41.0667 32.7391Z" fill="#FED118"/>
</svg>
