<svg width="60" height="49" viewBox="0 0 60 49" fill="none" xmlns="http://www.w3.org/2000/svg">
<path d="M23.6864 0.236635C21.76 0.715714 19.9541 1.85182 18.8036 3.30274C14.3889 8.819 17.225 16.9907 24.0342 18.4006C28.1011 19.2356 32.2214 17.0865 34.0006 13.1855C36.4487 7.77871 33.3183 1.40011 27.5927 0.19557C26.2951 -0.0781898 24.877 -0.0645008 23.6864 0.236635Z" fill="#0055B8"/>
<path d="M53.5854 12.6654C53.1306 12.8433 52.7159 13.3908 52.2343 14.4448C51.7795 15.4714 51.6992 15.5672 51.2845 15.6357C49.5855 15.9231 49.1976 16.0189 48.9033 16.2516C48.2745 16.717 48.0471 17.6204 48.4083 18.2775C48.5019 18.428 48.9434 18.9755 49.4116 19.4683C49.8665 19.9611 50.241 20.4128 50.241 20.4812C50.241 20.536 50.1474 21.1246 50.027 21.7953C49.8397 22.904 49.8397 23.0682 50.027 23.5884C50.2678 24.2317 50.8029 24.615 51.4584 24.615C51.7126 24.615 52.3279 24.3686 53.0102 23.999L54.1206 23.3831L55.2309 23.999C56.5553 24.7245 57.1038 24.7929 57.7191 24.2728C58.3479 23.7253 58.4549 23.2051 58.2141 21.7816C58.0937 21.1246 58.0001 20.5223 58.0001 20.4675C58.0001 20.4128 58.4148 19.9063 58.9365 19.3451C59.4449 18.7976 59.8997 18.1816 59.9532 17.99C60.1806 17.0592 59.5519 16.0874 58.6288 15.9368C58.388 15.8957 57.8395 15.7999 57.4115 15.7178C56.97 15.6494 56.5954 15.5809 56.5687 15.5809C56.5419 15.5809 56.2877 15.0745 56.0068 14.4448C55.7259 13.8289 55.3379 13.1855 55.1506 13.0076C54.8162 12.6791 53.9734 12.5011 53.5854 12.6654Z" fill="black"/>
<path d="M53.5854 12.6654C53.1306 12.8433 52.7159 13.3908 52.2343 14.4448C51.7795 15.4714 51.6992 15.5672 51.2845 15.6357C49.5855 15.9231 49.1976 16.0189 48.9033 16.2516C48.2745 16.717 48.0471 17.6204 48.4083 18.2775C48.5019 18.428 48.9434 18.9755 49.4116 19.4683C49.8665 19.9611 50.241 20.4128 50.241 20.4812C50.241 20.536 50.1474 21.1246 50.027 21.7953C49.8397 22.904 49.8397 23.0682 50.027 23.5884C50.2678 24.2317 50.8029 24.615 51.4584 24.615C51.7126 24.615 52.3279 24.3686 53.0102 23.999L54.1206 23.3831L55.2309 23.999C56.5553 24.7245 57.1038 24.7929 57.7191 24.2728C58.3479 23.7253 58.4549 23.2051 58.2141 21.7816C58.0937 21.1246 58.0001 20.5223 58.0001 20.4675C58.0001 20.4128 58.4148 19.9063 58.9365 19.3451C59.4449 18.7976 59.8997 18.1816 59.9532 17.99C60.1806 17.0592 59.5519 16.0874 58.6288 15.9368C58.388 15.8957 57.8395 15.7999 57.4115 15.7178C56.97 15.6494 56.5954 15.5809 56.5687 15.5809C56.5419 15.5809 56.2877 15.0745 56.0068 14.4448C55.7259 13.8289 55.3379 13.1855 55.1506 13.0076C54.8162 12.6791 53.9734 12.5011 53.5854 12.6654Z" fill="#0055B8"/>
<path d="M16.9842 17.7025C14.4558 18.6743 12.2218 20.3306 10.6967 22.3701C10.0412 23.2324 9.94756 23.4377 10.0813 23.6294C10.175 23.7526 10.5228 24.3411 10.8572 24.916C11.2051 25.5046 11.5127 25.9837 11.5663 25.9837C11.6064 25.9837 12.0345 26.0521 12.5027 26.1206C13.9742 26.367 15.1515 27.1746 15.7668 28.3654C15.9943 28.7897 16.0612 29.173 16.0612 29.9532C16.0612 31.2536 15.7401 31.9927 14.7234 33.0878C13.9609 33.909 13.894 34.1007 14.108 35.0862L14.1883 35.4832L14.6431 34.7714C15.1381 33.9912 15.9408 33.3478 16.8237 33.0193C17.1447 32.9098 18.1079 32.6908 18.9909 32.5539C19.8604 32.4034 20.5962 32.2665 20.6096 32.2528C20.6363 32.2254 21.0109 31.4315 21.4524 30.4734C22.7099 27.7631 23.7667 26.8734 25.76 26.8734C27.7532 26.8734 28.8101 27.7631 30.0676 30.4734C30.509 31.4315 30.8836 32.2254 30.9104 32.2528C30.9371 32.2802 31.6729 32.417 32.5692 32.5676C35.1243 32.9783 36.0474 33.4573 36.9036 34.8124L37.3316 35.4832L37.4119 35.0862C37.626 34.1007 37.5591 33.909 36.7965 33.0878C35.7798 31.9927 35.4588 31.2536 35.4722 29.9532C35.4722 28.7624 35.7397 28.119 36.5557 27.2977C37.2113 26.627 37.9336 26.2985 39.1911 26.0932C39.753 26.0111 40.2078 25.8742 40.2078 25.8058C40.2078 25.7373 40.4754 25.2035 40.8098 24.6423L41.4118 23.6157L41.064 23.0545C40.5289 22.2332 38.5356 20.2347 37.5323 19.523C36.6226 18.8659 35.0173 18.0036 34.1611 17.6888C33.6394 17.5108 33.6394 17.5108 32.8635 18.1542C30.5492 20.0431 27.9271 20.9191 25.0911 20.7412C22.5493 20.5769 20.2617 19.6188 18.3755 17.9215L17.8003 17.3876L16.9842 17.7025Z" fill="black"/>
<path d="M16.9842 17.7025C14.4558 18.6743 12.2218 20.3306 10.6967 22.3701C10.0412 23.2324 9.94756 23.4377 10.0813 23.6294C10.175 23.7526 10.5228 24.3411 10.8572 24.916C11.2051 25.5046 11.5127 25.9837 11.5663 25.9837C11.6064 25.9837 12.0345 26.0521 12.5027 26.1206C13.9742 26.367 15.1515 27.1746 15.7668 28.3654C15.9943 28.7897 16.0612 29.173 16.0612 29.9532C16.0612 31.2536 15.7401 31.9927 14.7234 33.0878C13.9609 33.909 13.894 34.1007 14.108 35.0862L14.1883 35.4832L14.6431 34.7714C15.1381 33.9912 15.9408 33.3478 16.8237 33.0193C17.1447 32.9098 18.1079 32.6908 18.9909 32.5539C19.8604 32.4034 20.5962 32.2665 20.6096 32.2528C20.6363 32.2254 21.0109 31.4315 21.4524 30.4734C22.7099 27.7631 23.7667 26.8734 25.76 26.8734C27.7532 26.8734 28.8101 27.7631 30.0676 30.4734C30.509 31.4315 30.8836 32.2254 30.9104 32.2528C30.9371 32.2802 31.6729 32.417 32.5692 32.5676C35.1243 32.9783 36.0474 33.4573 36.9036 34.8124L37.3316 35.4832L37.4119 35.0862C37.626 34.1007 37.5591 33.909 36.7965 33.0878C35.7798 31.9927 35.4588 31.2536 35.4722 29.9532C35.4722 28.7624 35.7397 28.119 36.5557 27.2977C37.2113 26.627 37.9336 26.2985 39.1911 26.0932C39.753 26.0111 40.2078 25.8742 40.2078 25.8058C40.2078 25.7373 40.4754 25.2035 40.8098 24.6423L41.4118 23.6157L41.064 23.0545C40.5289 22.2332 38.5356 20.2347 37.5323 19.523C36.6226 18.8659 35.0173 18.0036 34.1611 17.6888C33.6394 17.5108 33.6394 17.5108 32.8635 18.1542C30.5492 20.0431 27.9271 20.9191 25.0911 20.7412C22.5493 20.5769 20.2617 19.6188 18.3755 17.9215L17.8003 17.3876L16.9842 17.7025Z" fill="#0055B8"/>
<path d="M6.57636 24.8202C6.09476 25.0803 5.92085 25.3267 5.15833 26.7913L4.55633 27.9548L3.1383 28.1874C1.62662 28.4338 1.11827 28.6665 0.797207 29.2825C0.355744 30.1585 0.676808 30.884 2.08146 32.2254C2.99114 33.1014 2.99114 33.1014 2.68346 34.8946C2.42928 36.3592 2.57644 36.9614 3.27208 37.4405C3.94096 37.9059 4.42256 37.8375 5.93423 37.0709L7.29875 36.4002L8.66328 37.0709C10.175 37.8375 10.6565 37.9059 11.3254 37.4405C12.0612 36.9341 12.1682 36.3865 11.8739 34.6071L11.6197 33.1151L12.6097 32.1159C14.001 30.706 14.2418 30.1585 13.8003 29.2825C13.4792 28.6665 12.9709 28.4338 11.4592 28.1874L10.0412 27.9548L9.43918 26.7913C9.10474 26.1479 8.74354 25.4909 8.62314 25.3267C8.35559 24.9571 7.72684 24.6149 7.29875 24.6149C7.11147 24.6149 6.7904 24.7107 6.57636 24.8202Z" fill="black"/>
<path d="M6.57636 24.8202C6.09476 25.0803 5.92085 25.3267 5.15833 26.7913L4.55633 27.9548L3.1383 28.1874C1.62662 28.4338 1.11827 28.6665 0.797207 29.2825C0.355744 30.1585 0.676808 30.884 2.08146 32.2254C2.99114 33.1014 2.99114 33.1014 2.68346 34.8946C2.42928 36.3592 2.57644 36.9614 3.27208 37.4405C3.94096 37.9059 4.42256 37.8375 5.93423 37.0709L7.29875 36.4002L8.66328 37.0709C10.175 37.8375 10.6565 37.9059 11.3254 37.4405C12.0612 36.9341 12.1682 36.3865 11.8739 34.6071L11.6197 33.1151L12.6097 32.1159C14.001 30.706 14.2418 30.1585 13.8003 29.2825C13.4792 28.6665 12.9709 28.4338 11.4592 28.1874L10.0412 27.9548L9.43918 26.7913C9.10474 26.1479 8.74354 25.4909 8.62314 25.3267C8.35559 24.9571 7.72684 24.6149 7.29875 24.6149C7.11147 24.6149 6.7904 24.7107 6.57636 24.8202Z" fill="#0055B8"/>
<path d="M43.5255 24.7928C43.0439 25.0255 42.6693 25.5594 42.0807 26.8186C41.8265 27.3799 41.5991 27.8589 41.5857 27.8863C41.5724 27.9137 40.9035 28.0369 40.1008 28.1738C38.4286 28.4475 38.1477 28.5707 37.7998 29.173C37.238 30.0901 37.452 30.6513 38.8299 32.0475L39.9001 33.1151L39.646 34.6071C39.3517 36.3865 39.4587 36.9341 40.1944 37.4405C40.8633 37.9059 41.3449 37.8375 42.8566 37.0709L44.2211 36.4002L45.5857 37.0709C47.0973 37.8375 47.5789 37.9059 48.2478 37.4405C48.9836 36.9341 49.0906 36.3865 48.7963 34.6071L48.5421 33.1151L49.6123 32.0611C50.9902 30.6787 51.2043 30.1038 50.6424 29.173C50.2946 28.5707 50.0137 28.4475 48.3415 28.1738C47.5388 28.0369 46.8699 27.9137 46.8565 27.8863C46.8432 27.8589 46.5756 27.3114 46.2545 26.6544C45.9468 26.0111 45.5188 25.313 45.3047 25.1077C44.8633 24.6696 44.074 24.5328 43.5255 24.7928Z" fill="black"/>
<path d="M43.5255 24.7928C43.0439 25.0255 42.6693 25.5594 42.0807 26.8186C41.8265 27.3799 41.5991 27.8589 41.5857 27.8863C41.5724 27.9137 40.9035 28.0369 40.1008 28.1738C38.4286 28.4475 38.1477 28.5707 37.7998 29.173C37.238 30.0901 37.452 30.6513 38.8299 32.0475L39.9001 33.1151L39.646 34.6071C39.3517 36.3865 39.4587 36.9341 40.1944 37.4405C40.8633 37.9059 41.3449 37.8375 42.8566 37.0709L44.2211 36.4002L45.5857 37.0709C47.0973 37.8375 47.5789 37.9059 48.2478 37.4405C48.9836 36.9341 49.0906 36.3865 48.7963 34.6071L48.5421 33.1151L49.6123 32.0611C50.9902 30.6787 51.2043 30.1038 50.6424 29.173C50.2946 28.5707 50.0137 28.4475 48.3415 28.1738C47.5388 28.0369 46.8699 27.9137 46.8565 27.8863C46.8432 27.8589 46.5756 27.3114 46.2545 26.6544C45.9468 26.0111 45.5188 25.313 45.3047 25.1077C44.8633 24.6696 44.074 24.5328 43.5255 24.7928Z" fill="#0055B8"/>
<path d="M24.8904 29.2551C24.2482 29.6521 24.0877 29.9121 23.0309 32.157L22.0409 34.2786L19.9273 34.6071C18.6162 34.8124 17.6129 35.0451 17.2785 35.2094C16.2484 35.7432 15.8872 36.7698 16.3287 37.8512C16.4491 38.1386 17.2517 39.0831 18.1614 40.0412L19.7801 41.7112L19.4189 43.9971C18.9106 47.1316 19.031 47.8708 20.1547 48.473C20.9573 48.9111 21.653 48.7194 23.8202 47.4738L25.7465 46.3788L27.6997 47.4875C30.014 48.7879 30.7097 48.9658 31.5123 48.4046C32.0742 48.0213 32.4488 47.3096 32.4488 46.6525C32.4488 46.3925 32.2882 45.1742 32.1009 43.9423L31.7397 41.7112L33.3584 40.0412C35.0039 38.3303 35.3918 37.7417 35.3918 36.893C35.3918 36.3181 34.937 35.5927 34.3484 35.2505C33.9872 35.0314 30.4287 34.3334 29.6796 34.3334C29.5859 34.3334 29.0508 33.3615 28.5023 32.1843C27.9405 30.9935 27.3519 29.8848 27.1913 29.7068C26.5224 28.9814 25.6128 28.7897 24.8904 29.2551Z" fill="black"/>
<path d="M24.8904 29.2551C24.2482 29.6521 24.0877 29.9121 23.0309 32.157L22.0409 34.2786L19.9273 34.6071C18.6162 34.8124 17.6129 35.0451 17.2785 35.2094C16.2484 35.7432 15.8872 36.7698 16.3287 37.8512C16.4491 38.1386 17.2517 39.0831 18.1614 40.0412L19.7801 41.7112L19.4189 43.9971C18.9106 47.1316 19.031 47.8708 20.1547 48.473C20.9573 48.9111 21.653 48.7194 23.8202 47.4738L25.7465 46.3788L27.6997 47.4875C30.014 48.7879 30.7097 48.9658 31.5123 48.4046C32.0742 48.0213 32.4488 47.3096 32.4488 46.6525C32.4488 46.3925 32.2882 45.1742 32.1009 43.9423L31.7397 41.7112L33.3584 40.0412C35.0039 38.3303 35.3918 37.7417 35.3918 36.893C35.3918 36.3181 34.937 35.5927 34.3484 35.2505C33.9872 35.0314 30.4287 34.3334 29.6796 34.3334C29.5859 34.3334 29.0508 33.3615 28.5023 32.1843C27.9405 30.9935 27.3519 29.8848 27.1913 29.7068C26.5224 28.9814 25.6128 28.7897 24.8904 29.2551Z" fill="#0055B8"/>
<path d="M13.72 37.8784C13.4792 38.4807 12.69 39.2609 11.9943 39.5894C11.5395 39.7947 11.1114 39.8769 10.3756 39.8769C9.49269 39.8769 9.25189 39.8221 8.32883 39.3704C7.32551 38.8776 7.25862 38.8639 6.88405 39.0556C6.57636 39.2335 6.49609 39.3567 6.49609 39.7263C6.49609 40.794 7.09809 41.8069 8.00777 42.2586C8.56963 42.546 8.74354 42.546 13.011 42.5186L17.4256 42.4776L16.235 41.1772C14.8571 39.6852 14.4826 39.1377 14.2418 38.2891C14.0143 37.4678 13.9207 37.3993 13.72 37.8784Z" fill="black"/>
<path d="M13.72 37.8784C13.4792 38.4807 12.69 39.2609 11.9943 39.5894C11.5395 39.7947 11.1114 39.8769 10.3756 39.8769C9.49269 39.8769 9.25189 39.8221 8.32883 39.3704C7.32551 38.8776 7.25862 38.8639 6.88405 39.0556C6.57636 39.2335 6.49609 39.3567 6.49609 39.7263C6.49609 40.794 7.09809 41.8069 8.00777 42.2586C8.56963 42.546 8.74354 42.546 13.011 42.5186L17.4256 42.4776L16.235 41.1772C14.8571 39.6852 14.4826 39.1377 14.2418 38.2891C14.0143 37.4678 13.9207 37.3993 13.72 37.8784Z" fill="#0055B8"/>
<path d="M37.4922 37.5637C37.4387 37.6185 37.3986 37.7553 37.3986 37.8785C37.3986 38.4808 36.5558 39.8222 35.3518 41.1089L34.0809 42.4777L38.5758 42.5188L43.0574 42.5461L43.646 42.2039C44.4353 41.7249 44.9168 40.9446 44.9971 40.0139C45.0506 39.3158 45.0372 39.2747 44.6493 39.0694C44.2613 38.8641 44.2078 38.8778 43.1911 39.3568C42.2681 39.8085 42.0273 39.877 41.1443 39.8633C39.6059 39.8633 38.4554 39.1926 37.8267 37.947C37.6929 37.6869 37.5457 37.509 37.4922 37.5637Z" fill="black"/>
<path d="M37.4922 37.5637C37.4387 37.6185 37.3986 37.7553 37.3986 37.8785C37.3986 38.4808 36.5558 39.8222 35.3518 41.1089L34.0809 42.4777L38.5758 42.5188L43.0574 42.5461L43.646 42.2039C44.4353 41.7249 44.9168 40.9446 44.9971 40.0139C45.0506 39.3158 45.0372 39.2747 44.6493 39.0694C44.2613 38.8641 44.2078 38.8778 43.1911 39.3568C42.2681 39.8085 42.0273 39.877 41.1443 39.8633C39.6059 39.8633 38.4554 39.1926 37.8267 37.947C37.6929 37.6869 37.5457 37.509 37.4922 37.5637Z" fill="#0055B8"/>
</svg>
