<svg width="38" height="46" viewBox="0 0 38 46" fill="none" xmlns="http://www.w3.org/2000/svg">
<path d="M28.7059 1.93831L36.3695 5.19019C37.3587 5.60992 38 6.57292 38 7.63845V24.2938C38 29.4552 35.4825 34.2988 31.2405 37.2987L20.7319 44.7306C19.7965 45.3921 18.5399 45.3921 17.6045 44.7306L7.09587 37.2987C2.85394 34.2988 0.336411 29.4552 0.336411 24.2938V7.63845C0.336411 6.57292 0.97776 5.60992 1.96692 5.19019L9.63051 1.93831C15.7211 -0.646104 22.6153 -0.646101 28.7059 1.93831Z" fill="#FED118"/>
<path fill-rule="evenodd" clip-rule="evenodd" d="M29.5351 18.81L19.0595 29.182C18.3766 29.8581 17.2694 29.8581 16.5865 29.182L11.4913 24.1372L13.3936 22.2538L17.823 26.6393L27.6328 16.9265L29.5351 18.81Z" fill="white"/>
</svg>
