<svg width="56" height="56" viewBox="0 0 56 56" fill="none" xmlns="http://www.w3.org/2000/svg">
<path d="M7 18C7 16.1144 7 15.1716 7.58579 14.5858C8.17157 14 9.11438 14 11 14H45C46.8856 14 47.8284 14 48.4142 14.5858C49 15.1716 49 16.1144 49 18V38C49 39.8856 49 40.8284 48.4142 41.4142C47.8284 42 46.8856 42 45 42H11C9.11438 42 8.17157 42 7.58579 41.4142C7 40.8284 7 39.8856 7 38V18Z" fill="#0055B8"/>
<ellipse cx="14" cy="35.0001" rx="2.33333" ry="2.33333" fill="#B0CAE9"/>
<rect x="7" y="21" width="42" height="4.66667" fill="#B0CAE9"/>
</svg>
