<svg width="21" height="20" viewBox="0 0 21 20" fill="none" xmlns="http://www.w3.org/2000/svg">
<path d="M10.7982 0C13.5152 0 13.8542 0.00999994 14.9202 0.0599999C15.9852 0.11 16.7102 0.277 17.3482 0.525C18.0082 0.779 18.5642 1.123 19.1202 1.678C19.6287 2.1779 20.0222 2.78259 20.2732 3.45C20.5202 4.087 20.6882 4.813 20.7382 5.878C20.7852 6.944 20.7982 7.283 20.7982 10C20.7982 12.717 20.7882 13.056 20.7382 14.122C20.6882 15.187 20.5202 15.912 20.2732 16.55C20.0229 17.2178 19.6293 17.8226 19.1202 18.322C18.6202 18.8303 18.0155 19.2238 17.3482 19.475C16.7112 19.722 15.9852 19.89 14.9202 19.94C13.8542 19.987 13.5152 20 10.7982 20C8.08122 20 7.74222 19.99 6.67622 19.94C5.61122 19.89 4.88622 19.722 4.24822 19.475C3.58054 19.2245 2.97574 18.8309 2.47622 18.322C1.96762 17.8222 1.57415 17.2175 1.32322 16.55C1.07522 15.913 0.908218 15.187 0.858218 14.122C0.811218 13.056 0.798218 12.717 0.798218 10C0.798218 7.283 0.808218 6.944 0.858218 5.878C0.908218 4.812 1.07522 4.088 1.32322 3.45C1.57345 2.78218 1.96702 2.17732 2.47622 1.678C2.97589 1.16923 3.58065 0.775729 4.24822 0.525C4.88622 0.277 5.61022 0.11 6.67622 0.0599999C7.74222 0.0129999 8.08122 0 10.7982 0ZM10.7982 5C9.47214 5 8.20037 5.52678 7.26268 6.46447C6.325 7.40215 5.79822 8.67392 5.79822 10C5.79822 11.3261 6.325 12.5979 7.26268 13.5355C8.20037 14.4732 9.47214 15 10.7982 15C12.1243 15 13.3961 14.4732 14.3338 13.5355C15.2714 12.5979 15.7982 11.3261 15.7982 10C15.7982 8.67392 15.2714 7.40215 14.3338 6.46447C13.3961 5.52678 12.1243 5 10.7982 5ZM17.2982 4.75C17.2982 4.41848 17.1665 4.10054 16.9321 3.86612C16.6977 3.6317 16.3797 3.5 16.0482 3.5C15.7167 3.5 15.3988 3.6317 15.1643 3.86612C14.9299 4.10054 14.7982 4.41848 14.7982 4.75C14.7982 5.08152 14.9299 5.39946 15.1643 5.63388C15.3988 5.8683 15.7167 6 16.0482 6C16.3797 6 16.6977 5.8683 16.9321 5.63388C17.1665 5.39946 17.2982 5.08152 17.2982 4.75ZM10.7982 7C11.5939 7 12.3569 7.31607 12.9195 7.87868C13.4821 8.44129 13.7982 9.20435 13.7982 10C13.7982 10.7956 13.4821 11.5587 12.9195 12.1213C12.3569 12.6839 11.5939 13 10.7982 13C10.0026 13 9.23951 12.6839 8.6769 12.1213C8.11429 11.5587 7.79822 10.7956 7.79822 10C7.79822 9.20435 8.11429 8.44129 8.6769 7.87868C9.23951 7.31607 10.0026 7 10.7982 7Z" fill="#0055B8"/>
</svg>
