<svg width="19" height="22" viewBox="0 0 19 22" fill="none" xmlns="http://www.w3.org/2000/svg">
<path fill-rule="evenodd" clip-rule="evenodd" d="M14.1761 1.29113C11.03 0.587852 7.7673 0.587852 4.62113 1.29113L4.28213 1.36613C3.39714 1.56399 2.58434 2.00332 1.934 2.6353C1.28366 3.26728 0.821243 4.06718 0.598127 4.94613C-0.199376 8.08866 -0.199376 11.3806 0.598127 14.5231C0.810903 15.3614 1.24153 16.1285 1.84636 16.7467C2.45119 17.3648 3.20871 17.8121 4.04213 18.0431L4.50713 20.8191C4.52197 20.9073 4.56017 20.9898 4.61776 21.0582C4.67535 21.1266 4.75021 21.1783 4.83455 21.2079C4.9189 21.2375 5.00963 21.2439 5.09732 21.2266C5.18501 21.2092 5.26644 21.1687 5.33313 21.1091L8.06413 18.6661C10.1142 18.7912 12.1717 18.6273 14.1761 18.1791L14.5161 18.1041C15.4011 17.9063 16.2139 17.4669 16.8643 16.835C17.5146 16.203 17.977 15.4031 18.2001 14.5241C18.9975 11.3816 18.9975 8.08967 18.2001 4.94713C17.9769 4.06805 17.5144 3.26806 16.8638 2.63607C16.2133 2.00408 15.4003 1.56483 14.5151 1.36713L14.1761 1.29113ZM5.46513 4.86513C5.27927 4.83808 5.08976 4.87549 4.92813 4.97113H4.91413C4.53913 5.19113 4.20113 5.46813 3.91313 5.79413C3.67313 6.07113 3.54313 6.35113 3.50913 6.62113C3.48913 6.78113 3.50313 6.94313 3.55013 7.09613L3.56813 7.10613C3.83813 7.89913 4.19013 8.66213 4.62013 9.38013C5.17458 10.3886 5.85688 11.3213 6.65013 12.1551L6.67413 12.1891L6.71213 12.2171L6.73513 12.2441L6.76313 12.2681C7.59985 13.0638 8.53475 13.7493 9.54513 14.3081C10.7001 14.9371 11.4011 15.2341 11.8221 15.3581V15.3641C11.9451 15.4021 12.0571 15.4191 12.1701 15.4191C12.5287 15.3926 12.868 15.2469 13.1341 15.0051C13.4591 14.7171 13.7341 14.3781 13.9481 14.0011V13.9941C14.1491 13.6141 14.0811 13.2561 13.7911 13.0131C13.2086 12.5042 12.5788 12.0521 11.9101 11.6631C11.4621 11.4201 11.0071 11.5671 10.8231 11.8131L10.4301 12.3091C10.2281 12.5551 9.86213 12.5211 9.86213 12.5211L9.85213 12.5271C7.12113 11.8301 6.39213 9.06513 6.39213 9.06513C6.39213 9.06513 6.35813 8.68913 6.61113 8.49713L7.10313 8.10113C7.33913 7.90913 7.50313 7.45513 7.25013 7.00713C6.86373 6.33789 6.41257 5.70821 5.90313 5.12713C5.79202 4.99038 5.63619 4.89724 5.46313 4.86413L5.46513 4.86513ZM10.0791 3.66313C9.94652 3.66313 9.81934 3.71581 9.72557 3.80958C9.63181 3.90335 9.57913 4.03052 9.57913 4.16313C9.57913 4.29574 9.63181 4.42292 9.72557 4.51668C9.81934 4.61045 9.94652 4.66313 10.0791 4.66313C11.3441 4.66313 12.3941 5.07613 13.2251 5.86813C13.6521 6.30113 13.9851 6.81413 14.2031 7.37613C14.4221 7.93913 14.5221 8.54013 14.4961 9.14213C14.4934 9.20779 14.5036 9.27335 14.5262 9.33507C14.5487 9.39679 14.5832 9.45346 14.6277 9.50183C14.7176 9.59954 14.8425 9.65756 14.9751 9.66313C15.1077 9.6687 15.2371 9.62136 15.3348 9.53153C15.4325 9.4417 15.4906 9.31674 15.4961 9.18413C15.5271 8.44362 15.4042 7.70472 15.1351 7.01413C14.8649 6.32027 14.4551 5.68925 13.9311 5.16013L13.9211 5.15013C12.8901 4.16513 11.5851 3.66313 10.0791 3.66313ZM10.0451 5.30713C9.91252 5.30713 9.78534 5.35981 9.69157 5.45358C9.59781 5.54735 9.54513 5.67452 9.54513 5.80713C9.54513 5.93974 9.59781 6.06692 9.69157 6.16068C9.78534 6.25445 9.91252 6.30713 10.0451 6.30713H10.0621C10.9741 6.37213 11.6381 6.67613 12.1031 7.17513C12.5801 7.68913 12.8271 8.32813 12.8081 9.11813C12.8051 9.25074 12.8548 9.37913 12.9464 9.47505C13.0381 9.57098 13.164 9.62658 13.2966 9.62963C13.4292 9.63268 13.5576 9.58293 13.6535 9.49132C13.7495 9.3997 13.8051 9.27374 13.8081 9.14113C13.8321 8.10413 13.4981 7.20913 12.8361 6.49513V6.49313C12.1591 5.76713 11.2301 5.38313 10.1121 5.30813L10.0951 5.30613L10.0451 5.30713ZM10.0261 6.98213C9.95921 6.97623 9.8918 6.98387 9.8279 7.00459C9.764 7.02532 9.70494 7.05871 9.65423 7.10277C9.60353 7.14683 9.56222 7.20065 9.53277 7.26103C9.50333 7.32141 9.48635 7.3871 9.48286 7.45418C9.47936 7.52126 9.48942 7.58836 9.51243 7.65147C9.53544 7.71458 9.57093 7.77241 9.61678 7.8215C9.66264 7.87059 9.71791 7.90993 9.77931 7.93719C9.8407 7.96445 9.90696 7.97905 9.97413 7.98013C10.3921 8.00213 10.6591 8.12813 10.8271 8.29713C10.9961 8.46713 11.1221 8.74013 11.1451 9.16713C11.1464 9.23423 11.1611 9.30039 11.1885 9.36167C11.2158 9.42295 11.2553 9.4781 11.3044 9.52382C11.3535 9.56955 11.4113 9.60491 11.4744 9.62782C11.5375 9.65072 11.6045 9.66069 11.6716 9.65713C11.7386 9.65357 11.8042 9.63656 11.8645 9.6071C11.9248 9.57765 11.9785 9.53635 12.0226 9.48568C12.0666 9.43501 12.0999 9.376 12.1206 9.31217C12.1413 9.24834 12.149 9.18099 12.1431 9.11413C12.1111 8.51413 11.9231 7.98413 11.5381 7.59413C11.1511 7.20413 10.6241 7.01413 10.0261 6.98213Z" fill="#FED118"/>
</svg>
